<?xml version="1.0" standalone="no"?>
<!DOCTYPE svg PUBLIC "-//W3C//DTD SVG 20010904//EN"
 "http://www.w3.org/TR/2001/REC-SVG-20010904/DTD/svg10.dtd">
<svg version="1.0" xmlns="http://www.w3.org/2000/svg"
 width="260.000000pt" height="260.000000pt" viewBox="0 0 260.000000 260.000000"
 preserveAspectRatio="xMidYMid meet">
<metadata>
Created by potrace 1.11, written by Peter Selinger 2001-2013
</metadata>
<g transform="translate(0.000000,260.000000) scale(0.100000,-0.100000)"
fill="#000000" stroke="none">
<path d="M1242 2573 c-630 -74 -1025 -482 -1078 -1113 -11 -132 -6 -345 10
-426 2 -12 7 -39 10 -60 12 -73 49 -199 82 -277 192 -449 597 -682 1184 -681
264 1 465 45 765 170 l130 55 1 194 c0 155 -3 195 -13 200 -8 2 -49 -22 -91
-54 -185 -140 -398 -231 -602 -257 -25 -3 -56 -7 -70 -10 -31 -5 -249 -6 -258
0 -4 2 -31 7 -61 10 -69 8 -219 58 -279 93 -170 98 -290 238 -363 427 -60 155
-73 233 -74 446 0 233 17 336 85 501 88 213 274 388 482 454 125 40 186 48
338 48 121 -1 146 -3 275 -29 176 -36 369 -127 541 -256 90 -68 90 -69 89 157
0 115 -4 198 -10 204 -13 13 -193 87 -281 116 -74 25 -204 59 -264 69 -19 3
-45 8 -58 11 -105 20 -354 25 -490 8z"/>
</g>
</svg>
